<mxfile host="app.diagrams.net" agent="Mozilla/5.0 (Windows NT 10.0; Win64; x64) AppleWebKit/537.36 (KHTML, like Gecko) Chrome/110.0.0.0 Safari/537.36" version="24.7.7">
  <diagram name="Página-1" id="badeSgl3rarpciUWfAk7">
    <mxGraphModel dx="1707" dy="452" grid="1" gridSize="10" guides="1" tooltips="1" connect="1" arrows="1" fold="1" page="1" pageScale="1" pageWidth="827" pageHeight="1169" math="0" shadow="0">
      <root>
        <mxCell id="0" />
        <mxCell id="1" parent="0" />
        <mxCell id="oYlXpJVkNZ7Khja5sfW1-6" value="" style="rounded=0;orthogonalLoop=1;jettySize=auto;html=1;endArrow=halfCircle;endFill=0;endSize=6;strokeWidth=1;sketch=0;exitX=0.5;exitY=1;exitDx=0;exitDy=0;entryX=-0.2;entryY=0.8;entryDx=0;entryDy=0;entryPerimeter=0;" edge="1" target="oYlXpJVkNZ7Khja5sfW1-8" parent="1" source="oYlXpJVkNZ7Khja5sfW1-13">
          <mxGeometry relative="1" as="geometry">
            <mxPoint x="490" y="154.99" as="sourcePoint" />
            <mxPoint x="120" y="130" as="targetPoint" />
          </mxGeometry>
        </mxCell>
        <mxCell id="oYlXpJVkNZ7Khja5sfW1-7" value="" style="rounded=0;orthogonalLoop=1;jettySize=auto;html=1;endArrow=oval;endFill=0;sketch=0;sourcePerimeterSpacing=0;targetPerimeterSpacing=0;endSize=10;exitX=0.5;exitY=0;exitDx=0;exitDy=0;" edge="1" target="oYlXpJVkNZ7Khja5sfW1-8" parent="1" source="oYlXpJVkNZ7Khja5sfW1-21">
          <mxGeometry relative="1" as="geometry">
            <mxPoint x="346" y="154.99" as="sourcePoint" />
          </mxGeometry>
        </mxCell>
        <mxCell id="oYlXpJVkNZ7Khja5sfW1-8" value="" style="ellipse;whiteSpace=wrap;html=1;align=center;aspect=fixed;fillColor=none;strokeColor=none;resizable=0;perimeter=centerPerimeter;rotatable=0;allowArrows=0;points=[];outlineConnect=1;" vertex="1" parent="1">
          <mxGeometry x="122.5" y="120" width="10" height="10" as="geometry" />
        </mxCell>
        <mxCell id="oYlXpJVkNZ7Khja5sfW1-13" value="«external»&lt;br&gt;&lt;b&gt;Llamada de Usuario&lt;/b&gt;" style="html=1;dropTarget=0;whiteSpace=wrap;" vertex="1" parent="1">
          <mxGeometry x="77" y="30" width="100" height="70" as="geometry" />
        </mxCell>
        <mxCell id="oYlXpJVkNZ7Khja5sfW1-14" value="" style="shape=module;jettyWidth=8;jettyHeight=4;" vertex="1" parent="oYlXpJVkNZ7Khja5sfW1-13">
          <mxGeometry x="1" width="20" height="20" relative="1" as="geometry">
            <mxPoint x="-27" y="7" as="offset" />
          </mxGeometry>
        </mxCell>
        <mxCell id="oYlXpJVkNZ7Khja5sfW1-15" value="«external»&lt;br&gt;&lt;b&gt;Correo del Usuario&lt;/b&gt;" style="html=1;dropTarget=0;whiteSpace=wrap;" vertex="1" parent="1">
          <mxGeometry x="290" y="30" width="100" height="70" as="geometry" />
        </mxCell>
        <mxCell id="oYlXpJVkNZ7Khja5sfW1-16" value="" style="shape=module;jettyWidth=8;jettyHeight=4;" vertex="1" parent="oYlXpJVkNZ7Khja5sfW1-15">
          <mxGeometry x="1" width="20" height="20" relative="1" as="geometry">
            <mxPoint x="-27" y="7" as="offset" />
          </mxGeometry>
        </mxCell>
        <mxCell id="oYlXpJVkNZ7Khja5sfW1-17" value="«external»&lt;br&gt;&lt;b&gt;ChatBot Interfaz del Usuario&lt;/b&gt;" style="html=1;dropTarget=0;whiteSpace=wrap;" vertex="1" parent="1">
          <mxGeometry x="415" y="30" width="100" height="70" as="geometry" />
        </mxCell>
        <mxCell id="oYlXpJVkNZ7Khja5sfW1-18" value="" style="shape=module;jettyWidth=8;jettyHeight=4;" vertex="1" parent="oYlXpJVkNZ7Khja5sfW1-17">
          <mxGeometry x="1" width="20" height="20" relative="1" as="geometry">
            <mxPoint x="-27" y="7" as="offset" />
          </mxGeometry>
        </mxCell>
        <mxCell id="oYlXpJVkNZ7Khja5sfW1-19" value="«external»&lt;br&gt;&lt;b&gt;Interfaz del Usuario App&lt;/b&gt;" style="html=1;dropTarget=0;whiteSpace=wrap;" vertex="1" parent="1">
          <mxGeometry x="565" y="30" width="100" height="70" as="geometry" />
        </mxCell>
        <mxCell id="oYlXpJVkNZ7Khja5sfW1-20" value="" style="shape=module;jettyWidth=8;jettyHeight=4;" vertex="1" parent="oYlXpJVkNZ7Khja5sfW1-19">
          <mxGeometry x="1" width="20" height="20" relative="1" as="geometry">
            <mxPoint x="-27" y="7" as="offset" />
          </mxGeometry>
        </mxCell>
        <mxCell id="oYlXpJVkNZ7Khja5sfW1-21" value="&lt;b&gt;Canal de&amp;nbsp;&lt;/b&gt;&lt;div&gt;&lt;b&gt;Recepcion&lt;/b&gt;&lt;/div&gt;" style="html=1;dropTarget=0;whiteSpace=wrap;" vertex="1" parent="1">
          <mxGeometry x="77" y="160" width="100" height="70" as="geometry" />
        </mxCell>
        <mxCell id="oYlXpJVkNZ7Khja5sfW1-22" value="" style="shape=module;jettyWidth=8;jettyHeight=4;" vertex="1" parent="oYlXpJVkNZ7Khja5sfW1-21">
          <mxGeometry x="1" width="20" height="20" relative="1" as="geometry">
            <mxPoint x="-27" y="7" as="offset" />
          </mxGeometry>
        </mxCell>
        <mxCell id="oYlXpJVkNZ7Khja5sfW1-23" value="&lt;b&gt;Base de Datos&lt;/b&gt;" style="html=1;dropTarget=0;whiteSpace=wrap;" vertex="1" parent="1">
          <mxGeometry x="290" y="390" width="100" height="50" as="geometry" />
        </mxCell>
        <mxCell id="oYlXpJVkNZ7Khja5sfW1-24" value="" style="shape=module;jettyWidth=8;jettyHeight=4;" vertex="1" parent="oYlXpJVkNZ7Khja5sfW1-23">
          <mxGeometry x="1" width="20" height="20" relative="1" as="geometry">
            <mxPoint x="-27" y="7" as="offset" />
          </mxGeometry>
        </mxCell>
        <mxCell id="oYlXpJVkNZ7Khja5sfW1-25" value="&lt;b&gt;Sistema&amp;nbsp;&lt;/b&gt;&lt;div&gt;&lt;b&gt;Experto&lt;/b&gt;&lt;/div&gt;" style="html=1;dropTarget=0;whiteSpace=wrap;" vertex="1" parent="1">
          <mxGeometry x="500" y="160" width="100" height="70" as="geometry" />
        </mxCell>
        <mxCell id="oYlXpJVkNZ7Khja5sfW1-26" value="" style="shape=module;jettyWidth=8;jettyHeight=4;" vertex="1" parent="oYlXpJVkNZ7Khja5sfW1-25">
          <mxGeometry x="1" width="20" height="20" relative="1" as="geometry">
            <mxPoint x="-27" y="7" as="offset" />
          </mxGeometry>
        </mxCell>
        <mxCell id="oYlXpJVkNZ7Khja5sfW1-27" value="&lt;b&gt;Agente de&amp;nbsp;&lt;/b&gt;&lt;div&gt;&lt;b&gt;Correos&lt;/b&gt;&lt;/div&gt;" style="html=1;dropTarget=0;whiteSpace=wrap;" vertex="1" parent="1">
          <mxGeometry x="290" y="160" width="100" height="70" as="geometry" />
        </mxCell>
        <mxCell id="oYlXpJVkNZ7Khja5sfW1-28" value="" style="shape=module;jettyWidth=8;jettyHeight=4;" vertex="1" parent="oYlXpJVkNZ7Khja5sfW1-27">
          <mxGeometry x="1" width="20" height="20" relative="1" as="geometry">
            <mxPoint x="-27" y="7" as="offset" />
          </mxGeometry>
        </mxCell>
        <mxCell id="oYlXpJVkNZ7Khja5sfW1-29" value="&lt;b&gt;Gestion de&lt;/b&gt;&lt;div&gt;&lt;b&gt;&amp;nbsp;Clientes&lt;/b&gt;&lt;/div&gt;" style="html=1;dropTarget=0;whiteSpace=wrap;" vertex="1" parent="1">
          <mxGeometry x="500" y="450" width="100" height="70" as="geometry" />
        </mxCell>
        <mxCell id="oYlXpJVkNZ7Khja5sfW1-30" value="" style="shape=module;jettyWidth=8;jettyHeight=4;" vertex="1" parent="oYlXpJVkNZ7Khja5sfW1-29">
          <mxGeometry x="1" width="20" height="20" relative="1" as="geometry">
            <mxPoint x="-27" y="7" as="offset" />
          </mxGeometry>
        </mxCell>
        <mxCell id="oYlXpJVkNZ7Khja5sfW1-32" value="" style="rounded=0;orthogonalLoop=1;jettySize=auto;html=1;endArrow=halfCircle;endFill=0;endSize=6;strokeWidth=1;sketch=0;exitX=0.5;exitY=1;exitDx=0;exitDy=0;" edge="1" target="oYlXpJVkNZ7Khja5sfW1-34" parent="1" source="oYlXpJVkNZ7Khja5sfW1-15">
          <mxGeometry relative="1" as="geometry">
            <mxPoint x="350" y="160" as="sourcePoint" />
          </mxGeometry>
        </mxCell>
        <mxCell id="oYlXpJVkNZ7Khja5sfW1-33" value="" style="rounded=0;orthogonalLoop=1;jettySize=auto;html=1;endArrow=oval;endFill=0;sketch=0;sourcePerimeterSpacing=0;targetPerimeterSpacing=0;endSize=10;exitX=0.5;exitY=0;exitDx=0;exitDy=0;" edge="1" target="oYlXpJVkNZ7Khja5sfW1-34" parent="1" source="oYlXpJVkNZ7Khja5sfW1-27">
          <mxGeometry relative="1" as="geometry">
            <mxPoint x="360" y="130" as="sourcePoint" />
          </mxGeometry>
        </mxCell>
        <mxCell id="oYlXpJVkNZ7Khja5sfW1-34" value="" style="ellipse;whiteSpace=wrap;html=1;align=center;aspect=fixed;fillColor=none;strokeColor=none;resizable=0;perimeter=centerPerimeter;rotatable=0;allowArrows=0;points=[];outlineConnect=1;" vertex="1" parent="1">
          <mxGeometry x="335" y="124" width="10" height="10" as="geometry" />
        </mxCell>
        <mxCell id="oYlXpJVkNZ7Khja5sfW1-35" value="&lt;b&gt;Motor visualizacion 360&lt;/b&gt;" style="html=1;dropTarget=0;whiteSpace=wrap;imageWidth=24;" vertex="1" parent="1">
          <mxGeometry x="77" y="278" width="100" height="70" as="geometry" />
        </mxCell>
        <mxCell id="oYlXpJVkNZ7Khja5sfW1-36" value="" style="shape=module;jettyWidth=8;jettyHeight=4;" vertex="1" parent="oYlXpJVkNZ7Khja5sfW1-35">
          <mxGeometry x="1" width="20" height="20" relative="1" as="geometry">
            <mxPoint x="-27" y="7" as="offset" />
          </mxGeometry>
        </mxCell>
        <mxCell id="oYlXpJVkNZ7Khja5sfW1-37" value="&amp;lt;&amp;lt;external&amp;gt;&amp;gt;&lt;div&gt;&lt;b&gt;Interfaz de Agente&lt;/b&gt;&lt;/div&gt;" style="html=1;dropTarget=0;whiteSpace=wrap;" vertex="1" parent="1">
          <mxGeometry x="-140" y="278" width="100" height="70" as="geometry" />
        </mxCell>
        <mxCell id="oYlXpJVkNZ7Khja5sfW1-38" value="" style="shape=module;jettyWidth=8;jettyHeight=4;" vertex="1" parent="oYlXpJVkNZ7Khja5sfW1-37">
          <mxGeometry x="1" width="20" height="20" relative="1" as="geometry">
            <mxPoint x="-27" y="7" as="offset" />
          </mxGeometry>
        </mxCell>
        <mxCell id="oYlXpJVkNZ7Khja5sfW1-39" value="&amp;lt;&amp;lt;external&amp;gt;&amp;gt;&lt;div&gt;&lt;b&gt;Sistema LLM&lt;/b&gt;&lt;/div&gt;" style="html=1;dropTarget=0;whiteSpace=wrap;" vertex="1" parent="1">
          <mxGeometry x="727" y="160" width="100" height="70" as="geometry" />
        </mxCell>
        <mxCell id="oYlXpJVkNZ7Khja5sfW1-40" value="" style="shape=module;jettyWidth=8;jettyHeight=4;" vertex="1" parent="oYlXpJVkNZ7Khja5sfW1-39">
          <mxGeometry x="1" width="20" height="20" relative="1" as="geometry">
            <mxPoint x="-27" y="7" as="offset" />
          </mxGeometry>
        </mxCell>
        <mxCell id="oYlXpJVkNZ7Khja5sfW1-41" value="&amp;lt;&amp;lt;external&amp;gt;&amp;gt;&lt;div&gt;&lt;b&gt;Sistema Cliente&lt;/b&gt;&lt;/div&gt;" style="html=1;dropTarget=0;whiteSpace=wrap;" vertex="1" parent="1">
          <mxGeometry x="727" y="450" width="100" height="70" as="geometry" />
        </mxCell>
        <mxCell id="oYlXpJVkNZ7Khja5sfW1-42" value="" style="shape=module;jettyWidth=8;jettyHeight=4;" vertex="1" parent="oYlXpJVkNZ7Khja5sfW1-41">
          <mxGeometry x="1" width="20" height="20" relative="1" as="geometry">
            <mxPoint x="-27" y="7" as="offset" />
          </mxGeometry>
        </mxCell>
        <mxCell id="oYlXpJVkNZ7Khja5sfW1-43" value="&amp;lt;&amp;lt;external&amp;gt;&amp;gt;&lt;div&gt;Sistema Pagos&lt;/div&gt;" style="html=1;dropTarget=0;whiteSpace=wrap;" vertex="1" parent="1">
          <mxGeometry x="727" y="283" width="100" height="70" as="geometry" />
        </mxCell>
        <mxCell id="oYlXpJVkNZ7Khja5sfW1-44" value="" style="shape=module;jettyWidth=8;jettyHeight=4;" vertex="1" parent="oYlXpJVkNZ7Khja5sfW1-43">
          <mxGeometry x="1" width="20" height="20" relative="1" as="geometry">
            <mxPoint x="-27" y="7" as="offset" />
          </mxGeometry>
        </mxCell>
        <mxCell id="oYlXpJVkNZ7Khja5sfW1-45" value="&lt;b&gt;Gestion de&amp;nbsp;&lt;/b&gt;&lt;div&gt;&lt;b&gt;incidentes&lt;/b&gt;&lt;/div&gt;" style="html=1;dropTarget=0;whiteSpace=wrap;" vertex="1" parent="1">
          <mxGeometry x="290" y="278" width="100" height="70" as="geometry" />
        </mxCell>
        <mxCell id="oYlXpJVkNZ7Khja5sfW1-46" value="" style="shape=module;jettyWidth=8;jettyHeight=4;" vertex="1" parent="oYlXpJVkNZ7Khja5sfW1-45">
          <mxGeometry x="1" width="20" height="20" relative="1" as="geometry">
            <mxPoint x="-27" y="7" as="offset" />
          </mxGeometry>
        </mxCell>
        <mxCell id="oYlXpJVkNZ7Khja5sfW1-47" value="" style="rounded=0;orthogonalLoop=1;jettySize=auto;html=1;endArrow=halfCircle;endFill=0;endSize=6;strokeWidth=1;sketch=0;exitX=0.5;exitY=1;exitDx=0;exitDy=0;" edge="1" target="oYlXpJVkNZ7Khja5sfW1-49" parent="1" source="oYlXpJVkNZ7Khja5sfW1-17">
          <mxGeometry relative="1" as="geometry">
            <mxPoint x="570" y="125" as="sourcePoint" />
          </mxGeometry>
        </mxCell>
        <mxCell id="oYlXpJVkNZ7Khja5sfW1-48" value="" style="rounded=0;orthogonalLoop=1;jettySize=auto;html=1;endArrow=oval;endFill=0;sketch=0;sourcePerimeterSpacing=0;targetPerimeterSpacing=0;endSize=10;exitX=0.5;exitY=0;exitDx=0;exitDy=0;" edge="1" target="oYlXpJVkNZ7Khja5sfW1-49" parent="1" source="oYlXpJVkNZ7Khja5sfW1-25">
          <mxGeometry relative="1" as="geometry">
            <mxPoint x="320" y="175" as="sourcePoint" />
          </mxGeometry>
        </mxCell>
        <mxCell id="oYlXpJVkNZ7Khja5sfW1-49" value="" style="ellipse;whiteSpace=wrap;html=1;align=center;aspect=fixed;fillColor=none;strokeColor=none;resizable=0;perimeter=centerPerimeter;rotatable=0;allowArrows=0;points=[];outlineConnect=1;" vertex="1" parent="1">
          <mxGeometry x="500" y="120" width="10" height="10" as="geometry" />
        </mxCell>
        <mxCell id="oYlXpJVkNZ7Khja5sfW1-50" value="" style="rounded=0;orthogonalLoop=1;jettySize=auto;html=1;endArrow=halfCircle;endFill=0;endSize=6;strokeWidth=1;sketch=0;exitX=0.25;exitY=1;exitDx=0;exitDy=0;" edge="1" target="oYlXpJVkNZ7Khja5sfW1-52" parent="1" source="oYlXpJVkNZ7Khja5sfW1-25">
          <mxGeometry relative="1" as="geometry">
            <mxPoint x="490" y="255" as="sourcePoint" />
          </mxGeometry>
        </mxCell>
        <mxCell id="oYlXpJVkNZ7Khja5sfW1-51" value="" style="rounded=0;orthogonalLoop=1;jettySize=auto;html=1;endArrow=oval;endFill=0;sketch=0;sourcePerimeterSpacing=0;targetPerimeterSpacing=0;endSize=10;exitX=1;exitY=0.25;exitDx=0;exitDy=0;" edge="1" target="oYlXpJVkNZ7Khja5sfW1-52" parent="1" source="oYlXpJVkNZ7Khja5sfW1-45">
          <mxGeometry relative="1" as="geometry">
            <mxPoint x="450" y="255" as="sourcePoint" />
          </mxGeometry>
        </mxCell>
        <mxCell id="oYlXpJVkNZ7Khja5sfW1-52" value="" style="ellipse;whiteSpace=wrap;html=1;align=center;aspect=fixed;fillColor=none;strokeColor=none;resizable=0;perimeter=centerPerimeter;rotatable=0;allowArrows=0;points=[];outlineConnect=1;" vertex="1" parent="1">
          <mxGeometry x="520" y="290" width="10" height="10" as="geometry" />
        </mxCell>
        <mxCell id="oYlXpJVkNZ7Khja5sfW1-53" value="" style="rounded=0;orthogonalLoop=1;jettySize=auto;html=1;endArrow=halfCircle;endFill=0;endSize=6;strokeWidth=1;sketch=0;exitX=1;exitY=0.5;exitDx=0;exitDy=0;" edge="1" target="oYlXpJVkNZ7Khja5sfW1-55" parent="1" source="oYlXpJVkNZ7Khja5sfW1-25">
          <mxGeometry relative="1" as="geometry">
            <mxPoint x="620" y="255" as="sourcePoint" />
          </mxGeometry>
        </mxCell>
        <mxCell id="oYlXpJVkNZ7Khja5sfW1-54" value="" style="rounded=0;orthogonalLoop=1;jettySize=auto;html=1;endArrow=oval;endFill=0;sketch=0;sourcePerimeterSpacing=0;targetPerimeterSpacing=0;endSize=10;exitX=0;exitY=0.5;exitDx=0;exitDy=0;" edge="1" target="oYlXpJVkNZ7Khja5sfW1-55" parent="1" source="oYlXpJVkNZ7Khja5sfW1-39">
          <mxGeometry relative="1" as="geometry">
            <mxPoint x="580" y="255" as="sourcePoint" />
          </mxGeometry>
        </mxCell>
        <mxCell id="oYlXpJVkNZ7Khja5sfW1-55" value="" style="ellipse;whiteSpace=wrap;html=1;align=center;aspect=fixed;fillColor=none;strokeColor=none;resizable=0;perimeter=centerPerimeter;rotatable=0;allowArrows=0;points=[];outlineConnect=1;" vertex="1" parent="1">
          <mxGeometry x="640" y="190" width="10" height="10" as="geometry" />
        </mxCell>
        <mxCell id="oYlXpJVkNZ7Khja5sfW1-56" value="" style="rounded=0;orthogonalLoop=1;jettySize=auto;html=1;endArrow=halfCircle;endFill=0;endSize=6;strokeWidth=1;sketch=0;exitX=1;exitY=0.5;exitDx=0;exitDy=0;" edge="1" target="oYlXpJVkNZ7Khja5sfW1-58" parent="1" source="oYlXpJVkNZ7Khja5sfW1-27">
          <mxGeometry relative="1" as="geometry">
            <mxPoint x="430" y="195" as="sourcePoint" />
          </mxGeometry>
        </mxCell>
        <mxCell id="oYlXpJVkNZ7Khja5sfW1-57" value="" style="rounded=0;orthogonalLoop=1;jettySize=auto;html=1;endArrow=oval;endFill=0;sketch=0;sourcePerimeterSpacing=0;targetPerimeterSpacing=0;endSize=10;exitX=0;exitY=0.5;exitDx=0;exitDy=0;" edge="1" target="oYlXpJVkNZ7Khja5sfW1-58" parent="1" source="oYlXpJVkNZ7Khja5sfW1-25">
          <mxGeometry relative="1" as="geometry">
            <mxPoint x="390" y="195" as="sourcePoint" />
          </mxGeometry>
        </mxCell>
        <mxCell id="oYlXpJVkNZ7Khja5sfW1-58" value="" style="ellipse;whiteSpace=wrap;html=1;align=center;aspect=fixed;fillColor=none;strokeColor=none;resizable=0;perimeter=centerPerimeter;rotatable=0;allowArrows=0;points=[];outlineConnect=1;" vertex="1" parent="1">
          <mxGeometry x="405" y="190" width="10" height="10" as="geometry" />
        </mxCell>
        <mxCell id="oYlXpJVkNZ7Khja5sfW1-60" value="" style="rounded=0;orthogonalLoop=1;jettySize=auto;html=1;endArrow=halfCircle;endFill=0;endSize=6;strokeWidth=1;sketch=0;exitX=0.447;exitY=1.014;exitDx=0;exitDy=0;exitPerimeter=0;" edge="1" target="oYlXpJVkNZ7Khja5sfW1-62" parent="1" source="oYlXpJVkNZ7Khja5sfW1-19">
          <mxGeometry relative="1" as="geometry">
            <mxPoint x="640" y="145" as="sourcePoint" />
          </mxGeometry>
        </mxCell>
        <mxCell id="oYlXpJVkNZ7Khja5sfW1-61" value="" style="rounded=0;orthogonalLoop=1;jettySize=auto;html=1;endArrow=oval;endFill=0;sketch=0;sourcePerimeterSpacing=0;targetPerimeterSpacing=0;endSize=10;exitX=0.75;exitY=0;exitDx=0;exitDy=0;" edge="1" target="oYlXpJVkNZ7Khja5sfW1-62" parent="1" source="oYlXpJVkNZ7Khja5sfW1-25">
          <mxGeometry relative="1" as="geometry">
            <mxPoint x="600" y="145" as="sourcePoint" />
          </mxGeometry>
        </mxCell>
        <mxCell id="oYlXpJVkNZ7Khja5sfW1-62" value="" style="ellipse;whiteSpace=wrap;html=1;align=center;aspect=fixed;fillColor=none;strokeColor=none;resizable=0;perimeter=centerPerimeter;rotatable=0;allowArrows=0;points=[];outlineConnect=1;" vertex="1" parent="1">
          <mxGeometry x="590" y="120" width="10" height="10" as="geometry" />
        </mxCell>
        <mxCell id="oYlXpJVkNZ7Khja5sfW1-64" value="" style="rounded=0;orthogonalLoop=1;jettySize=auto;html=1;endArrow=halfCircle;endFill=0;endSize=6;strokeWidth=1;sketch=0;exitX=0.66;exitY=0.986;exitDx=0;exitDy=0;exitPerimeter=0;" edge="1" target="oYlXpJVkNZ7Khja5sfW1-66" parent="1" source="oYlXpJVkNZ7Khja5sfW1-25">
          <mxGeometry relative="1" as="geometry">
            <mxPoint x="560" y="345" as="sourcePoint" />
          </mxGeometry>
        </mxCell>
        <mxCell id="oYlXpJVkNZ7Khja5sfW1-65" value="" style="rounded=0;orthogonalLoop=1;jettySize=auto;html=1;endArrow=oval;endFill=0;sketch=0;sourcePerimeterSpacing=0;targetPerimeterSpacing=0;endSize=10;exitX=0.67;exitY=0;exitDx=0;exitDy=0;exitPerimeter=0;" edge="1" target="oYlXpJVkNZ7Khja5sfW1-66" parent="1" source="oYlXpJVkNZ7Khja5sfW1-29">
          <mxGeometry relative="1" as="geometry">
            <mxPoint x="520" y="345" as="sourcePoint" />
          </mxGeometry>
        </mxCell>
        <mxCell id="oYlXpJVkNZ7Khja5sfW1-66" value="" style="ellipse;whiteSpace=wrap;html=1;align=center;aspect=fixed;fillColor=none;strokeColor=none;resizable=0;perimeter=centerPerimeter;rotatable=0;allowArrows=0;points=[];outlineConnect=1;" vertex="1" parent="1">
          <mxGeometry x="560" y="300" width="10" height="10" as="geometry" />
        </mxCell>
        <mxCell id="oYlXpJVkNZ7Khja5sfW1-67" value="" style="rounded=0;orthogonalLoop=1;jettySize=auto;html=1;endArrow=halfCircle;endFill=0;endSize=6;strokeWidth=1;sketch=0;exitX=0;exitY=0.5;exitDx=0;exitDy=0;" edge="1" target="oYlXpJVkNZ7Khja5sfW1-69" parent="1" source="oYlXpJVkNZ7Khja5sfW1-41">
          <mxGeometry relative="1" as="geometry">
            <mxPoint x="635" y="435" as="sourcePoint" />
          </mxGeometry>
        </mxCell>
        <mxCell id="oYlXpJVkNZ7Khja5sfW1-68" value="" style="rounded=0;orthogonalLoop=1;jettySize=auto;html=1;endArrow=oval;endFill=0;sketch=0;sourcePerimeterSpacing=0;targetPerimeterSpacing=0;endSize=10;exitX=1;exitY=0.5;exitDx=0;exitDy=0;" edge="1" target="oYlXpJVkNZ7Khja5sfW1-69" parent="1" source="oYlXpJVkNZ7Khja5sfW1-29">
          <mxGeometry relative="1" as="geometry">
            <mxPoint x="595" y="435" as="sourcePoint" />
          </mxGeometry>
        </mxCell>
        <mxCell id="oYlXpJVkNZ7Khja5sfW1-69" value="" style="ellipse;whiteSpace=wrap;html=1;align=center;aspect=fixed;fillColor=none;strokeColor=none;resizable=0;perimeter=centerPerimeter;rotatable=0;allowArrows=0;points=[];outlineConnect=1;" vertex="1" parent="1">
          <mxGeometry x="630" y="480" width="10" height="10" as="geometry" />
        </mxCell>
        <mxCell id="oYlXpJVkNZ7Khja5sfW1-70" value="" style="rounded=0;orthogonalLoop=1;jettySize=auto;html=1;endArrow=halfCircle;endFill=0;endSize=6;strokeWidth=1;sketch=0;exitX=0.5;exitY=0;exitDx=0;exitDy=0;" edge="1" target="oYlXpJVkNZ7Khja5sfW1-72" parent="1" source="oYlXpJVkNZ7Khja5sfW1-35">
          <mxGeometry relative="1" as="geometry">
            <mxPoint x="200" y="255" as="sourcePoint" />
          </mxGeometry>
        </mxCell>
        <mxCell id="oYlXpJVkNZ7Khja5sfW1-71" value="" style="rounded=0;orthogonalLoop=1;jettySize=auto;html=1;endArrow=oval;endFill=0;sketch=0;sourcePerimeterSpacing=0;targetPerimeterSpacing=0;endSize=10;exitX=0.5;exitY=1;exitDx=0;exitDy=0;" edge="1" target="oYlXpJVkNZ7Khja5sfW1-72" parent="1" source="oYlXpJVkNZ7Khja5sfW1-21">
          <mxGeometry relative="1" as="geometry">
            <mxPoint x="160" y="255" as="sourcePoint" />
          </mxGeometry>
        </mxCell>
        <mxCell id="oYlXpJVkNZ7Khja5sfW1-72" value="" style="ellipse;whiteSpace=wrap;html=1;align=center;aspect=fixed;fillColor=none;strokeColor=none;resizable=0;perimeter=centerPerimeter;rotatable=0;allowArrows=0;points=[];outlineConnect=1;" vertex="1" parent="1">
          <mxGeometry x="122" y="250" width="10" height="10" as="geometry" />
        </mxCell>
        <mxCell id="oYlXpJVkNZ7Khja5sfW1-73" value="" style="rounded=0;orthogonalLoop=1;jettySize=auto;html=1;endArrow=halfCircle;endFill=0;endSize=6;strokeWidth=1;sketch=0;exitX=1;exitY=0.5;exitDx=0;exitDy=0;" edge="1" target="oYlXpJVkNZ7Khja5sfW1-75" parent="1" source="oYlXpJVkNZ7Khja5sfW1-37">
          <mxGeometry relative="1" as="geometry">
            <mxPoint x="60" y="315" as="sourcePoint" />
          </mxGeometry>
        </mxCell>
        <mxCell id="oYlXpJVkNZ7Khja5sfW1-74" value="" style="rounded=0;orthogonalLoop=1;jettySize=auto;html=1;endArrow=oval;endFill=0;sketch=0;sourcePerimeterSpacing=0;targetPerimeterSpacing=0;endSize=10;exitX=0;exitY=0.5;exitDx=0;exitDy=0;" edge="1" target="oYlXpJVkNZ7Khja5sfW1-75" parent="1" source="oYlXpJVkNZ7Khja5sfW1-35">
          <mxGeometry relative="1" as="geometry">
            <mxPoint x="60" y="290" as="sourcePoint" />
          </mxGeometry>
        </mxCell>
        <mxCell id="oYlXpJVkNZ7Khja5sfW1-75" value="" style="ellipse;whiteSpace=wrap;html=1;align=center;aspect=fixed;fillColor=none;strokeColor=none;resizable=0;perimeter=centerPerimeter;rotatable=0;allowArrows=0;points=[];outlineConnect=1;" vertex="1" parent="1">
          <mxGeometry x="35" y="308" width="10" height="10" as="geometry" />
        </mxCell>
        <mxCell id="oYlXpJVkNZ7Khja5sfW1-76" value="" style="rounded=0;orthogonalLoop=1;jettySize=auto;html=1;endArrow=halfCircle;endFill=0;endSize=6;strokeWidth=1;sketch=0;exitX=1;exitY=0.5;exitDx=0;exitDy=0;" edge="1" target="oYlXpJVkNZ7Khja5sfW1-78" parent="1" source="oYlXpJVkNZ7Khja5sfW1-35">
          <mxGeometry relative="1" as="geometry">
            <mxPoint x="190" y="350" as="sourcePoint" />
          </mxGeometry>
        </mxCell>
        <mxCell id="oYlXpJVkNZ7Khja5sfW1-77" value="" style="rounded=0;orthogonalLoop=1;jettySize=auto;html=1;endArrow=oval;endFill=0;sketch=0;sourcePerimeterSpacing=0;targetPerimeterSpacing=0;endSize=10;exitX=0;exitY=0.5;exitDx=0;exitDy=0;" edge="1" target="oYlXpJVkNZ7Khja5sfW1-78" parent="1" source="oYlXpJVkNZ7Khja5sfW1-45">
          <mxGeometry relative="1" as="geometry">
            <mxPoint x="220" y="315" as="sourcePoint" />
          </mxGeometry>
        </mxCell>
        <mxCell id="oYlXpJVkNZ7Khja5sfW1-78" value="" style="ellipse;whiteSpace=wrap;html=1;align=center;aspect=fixed;fillColor=none;strokeColor=none;resizable=0;perimeter=centerPerimeter;rotatable=0;allowArrows=0;points=[];outlineConnect=1;" vertex="1" parent="1">
          <mxGeometry x="235" y="308" width="10" height="10" as="geometry" />
        </mxCell>
        <mxCell id="oYlXpJVkNZ7Khja5sfW1-79" value="" style="rounded=0;orthogonalLoop=1;jettySize=auto;html=1;endArrow=halfCircle;endFill=0;endSize=6;strokeWidth=1;sketch=0;exitX=0.5;exitY=1;exitDx=0;exitDy=0;" edge="1" target="oYlXpJVkNZ7Khja5sfW1-81" parent="1" source="oYlXpJVkNZ7Khja5sfW1-35">
          <mxGeometry relative="1" as="geometry">
            <mxPoint x="120" y="360" as="sourcePoint" />
          </mxGeometry>
        </mxCell>
        <mxCell id="oYlXpJVkNZ7Khja5sfW1-80" value="" style="rounded=0;orthogonalLoop=1;jettySize=auto;html=1;endArrow=oval;endFill=0;sketch=0;sourcePerimeterSpacing=0;targetPerimeterSpacing=0;endSize=10;exitX=0;exitY=0.5;exitDx=0;exitDy=0;" edge="1" target="oYlXpJVkNZ7Khja5sfW1-81" parent="1" source="oYlXpJVkNZ7Khja5sfW1-29">
          <mxGeometry relative="1" as="geometry">
            <mxPoint x="320" y="375" as="sourcePoint" />
          </mxGeometry>
        </mxCell>
        <mxCell id="oYlXpJVkNZ7Khja5sfW1-81" value="" style="ellipse;whiteSpace=wrap;html=1;align=center;aspect=fixed;fillColor=none;strokeColor=none;resizable=0;perimeter=centerPerimeter;rotatable=0;allowArrows=0;points=[];outlineConnect=1;" vertex="1" parent="1">
          <mxGeometry x="122.5" y="480" width="10" height="10" as="geometry" />
        </mxCell>
        <mxCell id="oYlXpJVkNZ7Khja5sfW1-82" value="" style="rounded=0;orthogonalLoop=1;jettySize=auto;html=1;endArrow=halfCircle;endFill=0;endSize=6;strokeWidth=1;sketch=0;exitX=0.5;exitY=1;exitDx=0;exitDy=0;" edge="1" target="oYlXpJVkNZ7Khja5sfW1-84" parent="1" source="oYlXpJVkNZ7Khja5sfW1-45">
          <mxGeometry relative="1" as="geometry">
            <mxPoint x="360" y="375" as="sourcePoint" />
          </mxGeometry>
        </mxCell>
        <mxCell id="oYlXpJVkNZ7Khja5sfW1-83" value="" style="rounded=0;orthogonalLoop=1;jettySize=auto;html=1;endArrow=oval;endFill=0;sketch=0;sourcePerimeterSpacing=0;targetPerimeterSpacing=0;endSize=10;exitX=0.5;exitY=0;exitDx=0;exitDy=0;" edge="1" target="oYlXpJVkNZ7Khja5sfW1-84" parent="1" source="oYlXpJVkNZ7Khja5sfW1-23">
          <mxGeometry relative="1" as="geometry">
            <mxPoint x="320" y="375" as="sourcePoint" />
          </mxGeometry>
        </mxCell>
        <mxCell id="oYlXpJVkNZ7Khja5sfW1-84" value="" style="ellipse;whiteSpace=wrap;html=1;align=center;aspect=fixed;fillColor=none;strokeColor=none;resizable=0;perimeter=centerPerimeter;rotatable=0;allowArrows=0;points=[];outlineConnect=1;" vertex="1" parent="1">
          <mxGeometry x="335" y="360" width="10" height="10" as="geometry" />
        </mxCell>
        <mxCell id="oYlXpJVkNZ7Khja5sfW1-86" value="" style="rounded=0;orthogonalLoop=1;jettySize=auto;html=1;endArrow=halfCircle;endFill=0;endSize=6;strokeWidth=1;sketch=0;exitX=0.25;exitY=0;exitDx=0;exitDy=0;" edge="1" target="oYlXpJVkNZ7Khja5sfW1-88" parent="1" source="oYlXpJVkNZ7Khja5sfW1-29">
          <mxGeometry relative="1" as="geometry">
            <mxPoint x="480" y="415" as="sourcePoint" />
          </mxGeometry>
        </mxCell>
        <mxCell id="oYlXpJVkNZ7Khja5sfW1-87" value="" style="rounded=0;orthogonalLoop=1;jettySize=auto;html=1;endArrow=oval;endFill=0;sketch=0;sourcePerimeterSpacing=0;targetPerimeterSpacing=0;endSize=10;exitX=1;exitY=0.5;exitDx=0;exitDy=0;" edge="1" target="oYlXpJVkNZ7Khja5sfW1-88" parent="1" source="oYlXpJVkNZ7Khja5sfW1-23">
          <mxGeometry relative="1" as="geometry">
            <mxPoint x="440" y="415" as="sourcePoint" />
          </mxGeometry>
        </mxCell>
        <mxCell id="oYlXpJVkNZ7Khja5sfW1-88" value="" style="ellipse;whiteSpace=wrap;html=1;align=center;aspect=fixed;fillColor=none;strokeColor=none;resizable=0;perimeter=centerPerimeter;rotatable=0;allowArrows=0;points=[];outlineConnect=1;" vertex="1" parent="1">
          <mxGeometry x="520" y="410" width="10" height="10" as="geometry" />
        </mxCell>
        <UserObject label="(100 Ll / min&lt;span style=&quot;background-color: initial;&quot;&gt;&amp;nbsp;)&lt;/span&gt;" placeholders="1" name="Variable" id="oYlXpJVkNZ7Khja5sfW1-90">
          <mxCell style="text;html=1;strokeColor=none;fillColor=none;align=center;verticalAlign=middle;whiteSpace=wrap;overflow=hidden;" vertex="1" parent="1">
            <mxGeometry x="34" y="104" width="80" height="20" as="geometry" />
          </mxCell>
        </UserObject>
        <UserObject label="RecibirLlamada" placeholders="1" name="Variable" id="oYlXpJVkNZ7Khja5sfW1-91">
          <mxCell style="text;html=1;strokeColor=none;fillColor=none;align=center;verticalAlign=middle;whiteSpace=wrap;overflow=hidden;fontSize=11;" vertex="1" parent="1">
            <mxGeometry x="135" y="124" width="110" height="20" as="geometry" />
          </mxCell>
        </UserObject>
        <UserObject label="AsignarLlamada" placeholders="1" name="Variable" id="oYlXpJVkNZ7Khja5sfW1-92">
          <mxCell style="text;html=1;strokeColor=none;fillColor=none;align=center;verticalAlign=middle;whiteSpace=wrap;overflow=hidden;fontSize=11;" vertex="1" parent="1">
            <mxGeometry x="125" y="245" width="110" height="20" as="geometry" />
          </mxCell>
        </UserObject>
        <UserObject label="BuscarIncidentes" placeholders="1" name="Variable" id="oYlXpJVkNZ7Khja5sfW1-94">
          <mxCell style="text;html=1;strokeColor=none;fillColor=none;align=center;verticalAlign=middle;whiteSpace=wrap;overflow=hidden;fontSize=11;" vertex="1" parent="1">
            <mxGeometry x="177" y="318" width="110" height="20" as="geometry" />
          </mxCell>
        </UserObject>
        <UserObject label="BuscarIncidentes" placeholders="1" name="Variable" id="oYlXpJVkNZ7Khja5sfW1-95">
          <mxCell style="text;html=1;strokeColor=none;fillColor=none;align=center;verticalAlign=middle;whiteSpace=wrap;overflow=hidden;fontSize=11;" vertex="1" parent="1">
            <mxGeometry x="340" y="355" width="110" height="20" as="geometry" />
          </mxCell>
        </UserObject>
        <UserObject label="BuscarCliente" placeholders="1" name="Variable" id="oYlXpJVkNZ7Khja5sfW1-96">
          <mxCell style="text;html=1;strokeColor=none;fillColor=none;align=center;verticalAlign=middle;whiteSpace=wrap;overflow=hidden;fontSize=11;" vertex="1" parent="1">
            <mxGeometry x="440" y="390" width="110" height="20" as="geometry" />
          </mxCell>
        </UserObject>
        <UserObject label="BuscarCliente" placeholders="1" name="Variable" id="oYlXpJVkNZ7Khja5sfW1-97">
          <mxCell style="text;html=1;strokeColor=none;fillColor=none;align=center;verticalAlign=middle;whiteSpace=wrap;overflow=hidden;fontSize=11;" vertex="1" parent="1">
            <mxGeometry x="550" y="308" width="110" height="20" as="geometry" />
          </mxCell>
        </UserObject>
        <UserObject label="BuscarIncidentes" placeholders="1" name="Variable" id="oYlXpJVkNZ7Khja5sfW1-98">
          <mxCell style="text;html=1;strokeColor=none;fillColor=none;align=center;verticalAlign=middle;whiteSpace=wrap;overflow=hidden;fontSize=11;" vertex="1" parent="1">
            <mxGeometry x="414" y="270" width="110" height="20" as="geometry" />
          </mxCell>
        </UserObject>
        <UserObject label="ProcesarCorreo" placeholders="1" name="Variable" id="oYlXpJVkNZ7Khja5sfW1-99">
          <mxCell style="text;html=1;strokeColor=none;fillColor=none;align=center;verticalAlign=middle;whiteSpace=wrap;overflow=hidden;fontSize=11;" vertex="1" parent="1">
            <mxGeometry x="390" y="170" width="110" height="20" as="geometry" />
          </mxCell>
        </UserObject>
        <UserObject label="ProcesarChat" placeholders="1" name="Variable" id="oYlXpJVkNZ7Khja5sfW1-100">
          <mxCell style="text;html=1;strokeColor=none;fillColor=none;align=center;verticalAlign=middle;whiteSpace=wrap;overflow=hidden;fontSize=11;" vertex="1" parent="1">
            <mxGeometry x="405" y="124" width="110" height="20" as="geometry" />
          </mxCell>
        </UserObject>
        <UserObject label="ProcesarSolicitud" placeholders="1" name="Variable" id="oYlXpJVkNZ7Khja5sfW1-101">
          <mxCell style="text;html=1;strokeColor=none;fillColor=none;align=center;verticalAlign=middle;whiteSpace=wrap;overflow=hidden;fontSize=11;" vertex="1" parent="1">
            <mxGeometry x="590" y="130" width="110" height="20" as="geometry" />
          </mxCell>
        </UserObject>
        <UserObject label="ProcesarRespuesta" placeholders="1" name="Variable" id="oYlXpJVkNZ7Khja5sfW1-102">
          <mxCell style="text;html=1;strokeColor=none;fillColor=none;align=center;verticalAlign=middle;whiteSpace=wrap;overflow=hidden;fontSize=11;" vertex="1" parent="1">
            <mxGeometry x="593" y="166" width="127" height="20" as="geometry" />
          </mxCell>
        </UserObject>
        <UserObject label="RecibirCorreo" placeholders="1" name="Variable" id="oYlXpJVkNZ7Khja5sfW1-103">
          <mxCell style="text;html=1;strokeColor=none;fillColor=none;align=center;verticalAlign=middle;whiteSpace=wrap;overflow=hidden;fontSize=11;" vertex="1" parent="1">
            <mxGeometry x="245" y="130" width="110" height="20" as="geometry" />
          </mxCell>
        </UserObject>
        <UserObject label="BuscarCliente" placeholders="1" name="Variable" id="oYlXpJVkNZ7Khja5sfW1-104">
          <mxCell style="text;html=1;strokeColor=none;fillColor=none;align=center;verticalAlign=middle;whiteSpace=wrap;overflow=hidden;fontSize=11;" vertex="1" parent="1">
            <mxGeometry x="120" y="460" width="110" height="20" as="geometry" />
          </mxCell>
        </UserObject>
        <UserObject label="Visualizar" placeholders="1" name="Variable" id="oYlXpJVkNZ7Khja5sfW1-106">
          <mxCell style="text;html=1;strokeColor=none;fillColor=none;align=center;verticalAlign=middle;whiteSpace=wrap;overflow=hidden;fontSize=11;" vertex="1" parent="1">
            <mxGeometry x="-30" y="283" width="110" height="20" as="geometry" />
          </mxCell>
        </UserObject>
        <UserObject label="ActualiarInformacion" placeholders="1" name="Variable" id="oYlXpJVkNZ7Khja5sfW1-107">
          <mxCell style="text;html=1;strokeColor=none;fillColor=none;align=center;verticalAlign=middle;whiteSpace=wrap;overflow=hidden;fontSize=11;" vertex="1" parent="1">
            <mxGeometry x="600" y="460" width="127" height="20" as="geometry" />
          </mxCell>
        </UserObject>
      </root>
    </mxGraphModel>
  </diagram>
</mxfile>
